HIERARCHY
ROOT Hips
{
  OFFSET 340.003 92.5951 292.228
  CHANNELS 6 Xposition Yposition Zposition Zrotation Xrotation Yrotation
  JOINT RightUpLeg
  {
    OFFSET -9.26609 -1.5806 -0.0684436
    CHANNELS 3 Zrotation Xrotation Yrotation
    JOINT RightLeg
    {
      OFFSET -0.0699729 -41.8856 0.025134
      CHANNELS 3 Zrotation Xrotation Yrotation
      JOINT RightFoot
      {
        OFFSET -0.752211 -41.0064 1.27731
        CHANNELS 3 Zrotation Xrotation Yrotation
        End Site
        {
          OFFSET 0 -7.69 17.5
        }
      }
    }
  }
  JOINT LeftUpLeg
  {
    OFFSET 9.29203 -1.60136 0.0862626
    CHANNELS 3 Zrotation Xrotation Yrotation
    JOINT LeftLeg
    {
      OFFSET 0.0822268 -41.8886 0.00447562
      CHANNELS 3 Zrotation Xrotation Yrotation
      JOINT LeftFoot
      {
        OFFSET -0.848467 -42.1977 -1.10397
        CHANNELS 3 Zrotation Xrotation Yrotation
        End Site
        {
          OFFSET 0 -7.69 17.5
        }
      }
    }
  }
  JOINT Spine
  {
    OFFSET -0.0244873 14.3002 0.0159698
    CHANNELS 3 Zrotation Xrotation Yrotation
    JOINT Spine1
    {
      OFFSET -0.0132136 9.72434 0.0101154
      CHANNELS 3 Zrotation Xrotation Yrotation
      JOINT Spine2
      {
        OFFSET 0.00406896 10.114 0.0156068
        CHANNELS 3 Zrotation Xrotation Yrotation
        JOINT Spine3
        {
          OFFSET -0.024748 9.70954 0.0065763
          CHANNELS 3 Zrotation Xrotation Yrotation
          JOINT Neck
          {
            OFFSET 0.0279797 10.3854 -0.0829431
            CHANNELS 3 Zrotation Xrotation Yrotation
            JOINT Head
            {
              OFFSET -0.069571 9.46425 -0.0572086
              CHANNELS 3 Zrotation Xrotation Yrotation
              End Site
              {
                OFFSET 0 15.95 0
              }
            }
          }
          JOINT RightShoulder
          {
            OFFSET -3.22099 6.90738 0.00914502
            CHANNELS 3 Zrotation Xrotation Yrotation
            JOINT RightArm
            {
              OFFSET -12.8106 -0.0464494 0.0058648
              CHANNELS 3 Zrotation Xrotation Yrotation
              JOINT RightForeArm
              {
                OFFSET -26.5147 -0.0513887 -0.0188705
                CHANNELS 3 Zrotation Xrotation Yrotation
                JOINT RightHand
                {
                  OFFSET -25.9719 -0.0265549 0.0758228
                  CHANNELS 3 Zrotation Xrotation Yrotation
                  JOINT RightHandThumb1
                  {
                    OFFSET -2.48905 0.190105 3.12053
                    CHANNELS 3 Zrotation Xrotation Yrotation
                    JOINT RightHandThumb2
                    {
                      OFFSET -3.68274 0 0
                      CHANNELS 3 Zrotation Xrotation Yrotation
                      JOINT RightHandThumb3
                      {
                        OFFSET -2.55832 0 0
                        CHANNELS 3 Zrotation Xrotation Yrotation
                        End Site
                        {
                          OFFSET -2.194 0 0
                        }
                      }
                    }
                  }
                  JOINT RightInHandIndex
                  {
                    OFFSET -3.22368 0.508421 1.97842
                    CHANNELS 3 Zrotation Xrotation Yrotation
                    JOINT RightHandIndex1
                    {
                      OFFSET -5.21684 -0.091368 0.999158
                      CHANNELS 3 Zrotation Xrotation Yrotation
                      JOINT RightHandIndex2
                      {
                        OFFSET -3.61937 0 0
                        CHANNELS 3 Zrotation Xrotation Yrotation
                        JOINT RightHandIndex3
                        {
                          OFFSET -2.0521 0 0
                          CHANNELS 3 Zrotation Xrotation Yrotation
                          End Site
                          {
                            OFFSET -1.805 0 0
                          }
                        }
                      }
                    }
                  }
                  JOINT RightInHandMiddle
                  {
                    OFFSET -3.38211 0.517263 0.756737
                    CHANNELS 3 Zrotation Xrotation Yrotation
                    JOINT RightHandMiddle1
                    {
                      OFFSET -5.17411 -0.084 0.313895
                      CHANNELS 3 Zrotation Xrotation Yrotation
                      JOINT RightHandMiddle2
                      {
                        OFFSET -3.94947 0 0
                        CHANNELS 3 Zrotation Xrotation Yrotation
                        JOINT RightHandMiddle3
                        {
                          OFFSET -2.47579 0 0
                          CHANNELS 3 Zrotation Xrotation Yrotation
                          End Site
                          {
                            OFFSET -1.975 0 0
                          }
                        }
                      }
                    }
                  }
                  JOINT RightInHandRing
                  {
                    OFFSET -3.36516 0.537895 -0.128947
                    CHANNELS 3 Zrotation Xrotation Yrotation
                    JOINT RightHandRing1
                    {
                      OFFSET -4.63474 -0.022105 -0.478947
                      CHANNELS 3 Zrotation Xrotation Yrotation
                      JOINT RightHandRing2
                      {
                        OFFSET -3.44238 0 0
                        CHANNELS 3 Zrotation Xrotation Yrotation
                        JOINT RightHandRing3
                        {
                          OFFSET -2.3881 0 0
                          CHANNELS 3 Zrotation Xrotation Yrotation
                          End Site
                          {
                            OFFSET -1.857 0 0
                          }
                        }
                      }
                    }
                  }
                  JOINT RightInHandPinky
                  {
                    OFFSET -3.16105 0.469368 -1.20179
                    CHANNELS 3 Zrotation Xrotation Yrotation
                    JOINT RightHandPinky1
                    {
                      OFFSET -4.14105 -0.022105 -1.09053
                      CHANNELS 3 Zrotation Xrotation Yrotation
                      JOINT RightHandPinky2
                      {
                        OFFSET -2.75653 0 0
                        CHANNELS 3 Zrotation Xrotation Yrotation
                        JOINT RightHandPinky3
                        {
                          OFFSET -1.74189 0 0
                          CHANNELS 3 Zrotation Xrotation Yrotation
                          End Site
                          {
                            OFFSET -1.645 0 0
                          }
                        }
                      }
                    }
                  }
                }
              }
            }
          }
          JOINT LeftShoulder
          {
            OFFSET 3.1866 6.92089 -0.0305014
            CHANNELS 3 Zrotation Xrotation Yrotation
            JOINT LeftArm
            {
              OFFSET 12.7989 -0.0106337 -0.0135196
              CHANNELS 3 Zrotation Xrotation Yrotation
              JOINT LeftForeArm
              {
                OFFSET 26.5166 0.00962758 0.011832
                CHANNELS 3 Zrotation Xrotation Yrotation
                JOINT LeftHand
                {
                  OFFSET 25.9991 0.0644121 -0.000677009
                  CHANNELS 3 Zrotation Xrotation Yrotation
                  JOINT LeftHandThumb1
                  {
                    OFFSET 2.48905 0.190105 3.12053
                    CHANNELS 3 Zrotation Xrotation Yrotation
                    JOINT LeftHandThumb2
                    {
                      OFFSET 3.68274 0 0
                      CHANNELS 3 Zrotation Xrotation Yrotation
                      JOINT LeftHandThumb3
                      {
                        OFFSET 2.55832 0 0
                        CHANNELS 3 Zrotation Xrotation Yrotation
                        End Site
                        {
                          OFFSET 2.194 0 0
                        }
                      }
                    }
                  }
                  JOINT LeftInHandIndex
                  {
                    OFFSET 3.22368 0.508421 1.97842
                    CHANNELS 3 Zrotation Xrotation Yrotation
                    JOINT LeftHandIndex1
                    {
                      OFFSET 5.21684 -0.091368 0.999158
                      CHANNELS 3 Zrotation Xrotation Yrotation
                      JOINT LeftHandIndex2
                      {
                        OFFSET 3.61937 0 0
                        CHANNELS 3 Zrotation Xrotation Yrotation
                        JOINT LeftHandIndex3
                        {
                          OFFSET 2.0521 0 0
                          CHANNELS 3 Zrotation Xrotation Yrotation
                          End Site
                          {
                            OFFSET 1.805 0 0
                          }
                        }
                      }
                    }
                  }
                  JOINT LeftInHandMiddle
                  {
                    OFFSET 3.38211 0.517263 0.756737
                    CHANNELS 3 Zrotation Xrotation Yrotation
                    JOINT LeftHandMiddle1
                    {
                      OFFSET 5.17411 -0.084 0.313895
                      CHANNELS 3 Zrotation Xrotation Yrotation
                      JOINT LeftHandMiddle2
                      {
                        OFFSET 3.94947 0 0
                        CHANNELS 3 Zrotation Xrotation Yrotation
                        JOINT LeftHandMiddle3
                        {
                          OFFSET 2.47579 0 0
                          CHANNELS 3 Zrotation Xrotation Yrotation
                          End Site
                          {
                            OFFSET 1.975 0 0
                          }
                        }
                      }
                    }
                  }
                  JOINT LeftInHandRing
                  {
                    OFFSET 3.36516 0.537895 -0.128947
                    CHANNELS 3 Zrotation Xrotation Yrotation
                    JOINT LeftHandRing1
                    {
                      OFFSET 4.63474 -0.022105 -0.478947
                      CHANNELS 3 Zrotation Xrotation Yrotation
                      JOINT LeftHandRing2
                      {
                        OFFSET 3.44238 0 0
                        CHANNELS 3 Zrotation Xrotation Yrotation
                        JOINT LeftHandRing3
                        {
                          OFFSET 2.3881 0 0
                          CHANNELS 3 Zrotation Xrotation Yrotation
                          End Site
                          {
                            OFFSET 1.857 0 0
                          }
                        }
                      }
                    }
                  }
                  JOINT LeftInHandPinky
                  {
                    OFFSET 3.16105 0.469368 -1.20179
                    CHANNELS 3 Zrotation Xrotation Yrotation
                    JOINT LeftHandPinky1
                    {
                      OFFSET 4.14105 -0.022105 -1.09053
                      CHANNELS 3 Zrotation Xrotation Yrotation
                      JOINT LeftHandPinky2
                      {
                        OFFSET 2.75653 0 0
                        CHANNELS 3 Zrotation Xrotation Yrotation
                        JOINT LeftHandPinky3
                        {
                          OFFSET 1.74189 0 0
                          CHANNELS 3 Zrotation Xrotation Yrotation
                          End Site
                          {
                            OFFSET 1.645 0 0
                          }
                        }
                      }
                    }
                  }
                }
              }
            }
          }
        }
      }
    }
  }
}
MOTION
Frames:	4
Frame Time:	0.00833333
335.963 86.3824 273.072 34.7458 5.48617 -101.175 34.8335 -59.8255 50.9466 -3.11963 29.7144 -13.0781 9.74919 2.02662 34.1705 35.9575 -49.1902 21.9172 -12.6951 52.8292 16.9306 0.521361 -19.9972 32.9677 0.681297 0.762755 -22.6771 0.144964 0.213772 -5.76758 0.240964 0.348802 -9.14427 -0.473234 -0.46756 2.60085 -0.830343 -5.71284 31.7935 -7.08677 -0.475871 29.6847 4.63738 -5.21427 -16.2997 67.236 -43.683 34.6239 23.1863 -7.50866 130.143 5.58201 -2.21293 7.28662 28.184 10.7294 19.1592 -4.84443e-15 0 -10 6.05554e-15 0 -10 -5.36719e-15 3.97569e-16 -0 19.9818 0.871897 2.3964 24 4.77083e-15 -3.18055e-15 20 1.59028e-15 -7.95139e-16 -5.36719e-15 3.97569e-16 -0 20 1.59028e-15 -0 24 0 -0 20 -1.59028e-15 -1.98785e-15 -5.36719e-15 3.97569e-16 -0 19.9748 -1.02565 -2.81938 24 -1.59028e-15 -1.19271e-15 20 0 -1.09332e-15 -5.36719e-15 3.97569e-16 -0 19.7815 -3.00948 -8.30515 24 -3.97569e-16 3.97569e-16 20 3.97569e-16 -0 8.8468 -11.8142 -35.8279 2.9558 9.90717 -121.957 19.6115 -26.9839 -36.9074 -9.8014 17.2405 -20.5586 -28.184 10.7294 -19.1592 -4.91207e-15 9.54166e-15 10 -0 0 10 6.36111e-15 0 -1.59028e-15 -19.9818 0.871897 -2.3964 -24 -1.59028e-15 -0 -20 1.19271e-15 1.59028e-15 6.36111e-15 0 -1.59028e-15 -20 -3.18055e-15 -1.59028e-15 -24 -2.38542e-15 1.59028e-15 -20 -1.19271e-15 -0 6.36111e-15 0 -1.59028e-15 -19.9748 -1.02565 2.81938 -24 -2.38542e-15 3.18055e-15 -20 9.93923e-16 -3.18055e-15 6.36111e-15 0 -1.59028e-15 -19.7815 -3.00948 8.30515 -24 9.93923e-16 -0 -20 -2.38542e-15 1.27222e-14 
336.228 86.5419 273.315 35.9909 5.84595 -99.5034 33.916 -61.7174 50.2751 -2.93818 30.1183 -13.1436 9.88678 1.61354 33.2751 35.6711 -51.5203 21.7793 -11.7666 52.6714 16.2968 0.091047 -19.7281 32.03 1.17519 0.248298 -22.9153 0.287088 0.152548 -5.82771 0.473871 0.281406 -9.22836 -0.480071 -0.467605 2.57819 -0.946975 -5.55573 30.2347 -7.19422 -0.782938 30.3085 4.52541 -5.59038 -16.116 69.188 -36.4487 36.5648 18.6421 -11.306 129.912 5.01145 -2.12816 7.84389 28.184 10.7294 19.1592 -2.45604e-15 -4.77083e-15 -10 -3.54385e-15 -6.36111e-15 -10 2.02512e-15 -2.48481e-16 -0 19.9818 0.871897 2.3964 24 0 -0 20 0 -0 2.02512e-15 -2.48481e-16 -0 20 2.78299e-15 -0 24 0 1.59028e-15 20 1.59028e-15 3.18055e-15 2.02512e-15 -2.48481e-16 -0 19.9748 -1.02565 -2.81938 24 0 -1.59028e-15 20 -1.59028e-15 -7.95139e-16 2.02512e-15 -2.48481e-16 -0 19.7815 -3.00948 -8.30515 24 -2.98177e-16 -2.48481e-16 20 -9.93923e-17 -0 8.30768 -11.7852 -35.7069 3.16992 10.138 -121.997 19.5791 -26.764 -35.2589 -10.0643 17.4497 -20.5739 -28.184 10.7294 -19.1592 1.81666e-15 0 10 2.17563e-15 -3.18055e-15 10 5.56597e-15 1.59028e-15 1.59028e-15 -19.9818 0.871897 -2.3964 -24 7.95139e-16 1.59028e-15 -20 5.46658e-16 -0 5.56597e-15 1.59028e-15 1.59028e-15 -20 1.59028e-15 -1.59028e-15 -24 2.38542e-15 -0 -20 0 -3.18055e-15 5.56597e-15 1.59028e-15 1.59028e-15 -19.9748 -1.02565 2.81938 -24 -1.39149e-15 -0 -20 2.38542e-15 -3.18055e-15 5.56597e-15 1.59028e-15 1.59028e-15 -19.7815 -3.00948 8.30515 -24 7.95139e-16 -0 -20 -1.59028e-15 -3.18055e-15 
336.507 86.6299 273.565 37.0518 6.34346 -98.0074 32.9666 -63.3433 49.6058 -2.73174 30.5918 -13.2602 10.1127 1.07572 32.3445 35.3272 -53.6185 21.4886 -10.8513 52.4562 15.7297 -0.304086 -19.4149 31.1124 1.68821 -0.129126 -22.9912 0.42951 0.121441 -5.84744 0.70766 0.26006 -9.25429 -0.489119 -0.467647 2.55205 -1.06461 -5.398 28.5749 -7.33382 -1.12948 30.9391 4.42355 -6.01205 -15.8818 69.6603 -34.4299 36.9797 17.8381 -11.3852 128.643 4.28334 -2.06382 8.50923 28.184 10.7294 19.1592 -1.37259e-14 0 -10 -7.3452e-15 -1.59028e-15 -10 5.76476e-15 -3.97569e-16 -0 19.9818 0.871897 2.3964 24 1.59028e-15 -0 20 3.18055e-15 1.59028e-15 5.76476e-15 -3.97569e-16 -0 20 9.44227e-16 -0 24 -1.59028e-15 -0 20 -7.95139e-16 1.59028e-15 5.76476e-15 -3.97569e-16 -0 19.9748 -1.02565 -2.81938 24 7.95139e-16 1.59028e-15 20 -1.59028e-15 7.95139e-16 5.76476e-15 -3.97569e-16 -0 19.7815 -3.00948 -8.30515 24 0 -1.98785e-16 20 -1.98785e-16 3.97569e-16 7.75057 -11.8161 -35.4831 3.29797 10.4614 -122.014 19.5142 -26.5026 -33.5905 -10.3834 17.6796 -20.5863 -28.184 10.7294 -19.1592 -2.46587e-16 -3.18055e-15 10 5.60818e-16 -3.18055e-15 10 3.97569e-16 1.59028e-15 3.18055e-15 -19.9818 0.871897 -2.3964 -24 -1.98785e-15 3.18055e-15 -20 -7.95139e-16 6.36111e-15 3.97569e-16 1.59028e-15 3.18055e-15 -20 -1.59028e-15 3.18055e-15 -24 -5.96354e-16 -0 -20 0 -3.18055e-15 3.97569e-16 1.59028e-15 3.18055e-15 -19.9748 -1.02565 2.81938 -24 2.98177e-16 -3.18055e-15 -20 -1.59028e-15 -3.18055e-15 3.97569e-16 1.59028e-15 3.18055e-15 -19.7815 -3.00948 8.30515 -24 1.59028e-15 6.36111e-15 -20 3.18055e-15 -0 
336.796 86.703 273.828 38.1144 7.01028 -96.4078 31.7342 -65.0044 48.5758 -2.53692 31.0791 -13.4167 10.4185 0.527404 31.3884 34.875 -55.806 20.8874 -10.007 52.2408 15.1259 -0.641508 -19.08 30.3453 2.28596 -0.51615 -23.048 0.593711 0.0965151 -5.8639 0.977206 0.252242 -9.27448 -0.500576 -0.467701 2.52122 -1.18523 -5.21749 26.756 -7.51473 -1.50865 31.5923 4.22531 -6.50976 -15.6491 70.122 -32.3792 37.291 17.0054 -11.3588 127.232 3.25931 1.15598 10.2787 28.184 10.7294 19.1592 3.72279e-15 -6.36111e-15 -10 5.60818e-16 3.18055e-15 -10 1.93815e-15 0 -0 19.9818 0.871897 2.3964 24 7.95139e-16 -1.59028e-15 20 0 -1.59028e-15 1.93815e-15 0 -0 20 2.23633e-15 -0 24 0 -3.18055e-15 20 7.95139e-16 -1.59028e-15 1.93815e-15 0 -0 19.9748 -1.02565 -2.81938 24 -3.97569e-16 1.59028e-15 20 0 -7.95139e-16 1.93815e-15 0 -0 19.7815 -3.00948 -8.30515 24 0 -0 20 -3.97569e-16 -0 7.14692 -11.8506 -35.1929 1.3766 12.3807 -118.477 17.9717 -24.8732 -36.0474 -10.7355 17.9213 -20.5935 -28.184 10.7294 -19.1592 -2.45604e-15 4.77083e-15 10 -1.08781e-15 1.59028e-15 10 -6.36111e-15 -3.18055e-15 -6.36111e-15 -19.9818 0.871897 -2.3964 -24 -2.19906e-15 3.18055e-15 -20 -7.95139e-16 -0 -6.36111e-15 -3.18055e-15 -6.36111e-15 -20 -3.18055e-15 3.18055e-15 -24 -1.19271e-15 -0 -20 0 -0 -6.36111e-15 -3.18055e-15 -6.36111e-15 -19.9748 -1.02565 2.81938 -24 -5.56597e-15 6.36111e-15 -20 -1.59028e-15 3.18055e-15 -6.36111e-15 -3.18055e-15 -6.36111e-15 -19.7815 -3.00948 8.30515 -24 -1.59028e-15 9.54166e-15 -20 3.18055e-15 6.36111e-15 
